<svg width="20" height="23" viewBox="0 0 20 23" fill="none" xmlns="http://www.w3.org/2000/svg">
<path d="M19.261 17.0801C18.5332 19.1912 16.3545 22.9292 14.11 22.9699C12.6211 22.9986 12.1424 22.0875 10.4406 22.0875C8.73965 22.0875 8.20725 22.9422 6.79984 22.9977C4.41836 23.0894 0.742432 17.6023 0.742432 12.8172C0.742432 8.42179 3.80539 6.24308 6.48132 6.20327C7.91651 6.17734 9.27206 7.17086 10.1471 7.17086C11.0258 7.17086 12.6721 5.97642 14.4026 6.15142C15.1267 6.18197 17.161 6.44308 18.4665 8.35234C15.0026 10.6135 15.5424 15.3422 19.261 17.0801ZM14.4258 0.777344C11.8091 0.882899 9.67391 3.62827 9.97206 5.89864C12.3906 6.0866 14.711 3.37549 14.4258 0.777344Z" fill="black"/>
</svg>
