<svg width="20" height="4" viewBox="0 0 20 4" fill="none" xmlns="http://www.w3.org/2000/svg">
<path d="M0.533883 3.08535C0.355304 2.708 0.179638 2.33653 0 1.95685C0.0491125 1.93401 0.0816777 1.91692 0.115567 1.90338C1.09437 1.51153 2.08986 1.17275 3.10534 0.89661C3.90928 0.678051 4.72076 0.495872 5.54124 0.359512C6.00854 0.281827 6.47875 0.221511 6.94869 0.162426C7.54797 0.0870656 8.14976 0.0405637 8.75328 0.0231938C9.18285 0.0107477 9.61281 -0.00484411 10.0421 0.00295181C10.5244 0.0117051 11.0069 0.0345458 11.488 0.0702429C12.5058 0.145603 13.5163 0.283468 14.5186 0.4837C15.5214 0.683795 16.5129 0.931213 17.4837 1.25905C18.0929 1.46489 18.694 1.6959 19.2994 1.91377C19.3618 1.9362 19.3768 1.96383 19.3461 2.0277C19.1864 2.35992 19.03 2.69364 18.8718 3.02667C18.8633 3.04459 18.8497 3.06004 18.836 3.08015C18.6966 3.02052 18.5587 2.96171 18.4209 2.90276C17.818 2.64454 17.2039 2.41873 16.5806 2.21932C15.6955 1.9362 14.7981 1.70369 13.8834 1.55147C13.2792 1.45094 12.6722 1.36409 12.0637 1.29789C11.5888 1.2462 11.1101 1.22294 10.6327 1.21036C10.0335 1.19477 9.43357 1.19477 8.83429 1.2038C8.43583 1.20981 8.03684 1.23183 7.63997 1.26822C7.14885 1.31335 6.65891 1.37449 6.16977 1.44014C5.41323 1.54189 4.66701 1.70178 3.92728 1.89339C2.79015 2.188 1.68333 2.57615 0.607089 3.05704C0.589482 3.06538 0.570685 3.0714 0.533883 3.08535Z" fill="#D3323C"/>
</svg>
